<svg width="100%" height="100%" id="svg" viewBox="0 0 1440 590" xmlns="http://www.w3.org/2000/svg" class="transition duration-300 ease-in-out delay-150"><defs><linearGradient id="gradient" x1="0%" y1="50%" x2="100%" y2="50%"><stop offset="5%" stop-color="#F78DA7"></stop><stop offset="95%" stop-color="#8ED1FC"></stop></linearGradient></defs><path d="M 0,600 C 0,600 0,200 0,200 C 125.02392344497608,227.63636363636363 250.04784688995215,255.27272727272728 328,241 C 405.95215311004785,226.72727272727272 436.83253588516754,170.54545454545453 523,158 C 609.1674641148325,145.45454545454547 750.6220095693781,176.54545454545456 862,197 C 973.3779904306219,217.45454545454544 1054.6794258373207,227.27272727272728 1146,226 C 1237.3205741626793,224.72727272727272 1338.6602870813397,212.36363636363637 1440,200 C 1440,200 1440,600 1440,600 Z" stroke="none" stroke-width="0" fill="url(#gradient)" fill-opacity="0.53" class="transition-all duration-300 ease-in-out delay-150 path-0"></path><defs><linearGradient id="gradient" x1="0%" y1="50%" x2="100%" y2="50%"><stop offset="5%" stop-color="#F78DA7"></stop><stop offset="95%" stop-color="#8ED1FC"></stop></linearGradient></defs><path d="M 0,600 C 0,600 0,400 0,400 C 119.7129186602871,441.6459330143541 239.4258373205742,483.29186602870817 331,471 C 422.5741626794258,458.70813397129183 486.0095693779905,392.4784688995215 574,388 C 661.9904306220095,383.5215311004785 774.5358851674642,440.79425837320576 881,441 C 987.4641148325358,441.20574162679424 1087.846889952153,384.34449760765546 1180,368 C 1272.153110047847,351.65550239234454 1356.0765550239234,375.82775119617224 1440,400 C 1440,400 1440,600 1440,600 Z" stroke="none" stroke-width="0" fill="url(#gradient)" fill-opacity="1" class="transition-all duration-300 ease-in-out delay-150 path-1"></path></svg>

